<?xml version="1.0" encoding="UTF-8" standalone="no"?><!DOCTYPE svg PUBLIC "-//W3C//DTD SVG 1.1//EN" "http://www.w3.org/Graphics/SVG/1.1/DTD/svg11.dtd"><svg width="100%" height="100%" viewBox="0 0 358 156" version="1.1" xmlns="http://www.w3.org/2000/svg" xmlns:xlink="http://www.w3.org/1999/xlink" xml:space="preserve" style="fill-rule:evenodd;clip-rule:evenodd;stroke-linejoin:round;stroke-miterlimit:1.41421;"><g id="Gifts"><path id="gift-bow" d="M77.4,112.394l66.915,0l-42.973,-55.25c-6.139,-6.958 -13.915,-10.436 -23.328,-10.436c-9.413,0 -17.393,3.069 -23.942,9.208c-6.548,6.139 -9.617,13.915 -9.208,23.328c0.409,9.413 3.479,17.189 9.208,23.328c5.73,6.139 13.506,9.413 23.328,9.822ZM313.136,79.244c0,-9.004 -3.07,-16.78 -9.208,-23.328c-6.139,-6.548 -14.018,-9.72 -23.635,-9.515c-9.618,0.204 -17.496,3.785 -23.635,10.743l-42.359,55.25l66.301,0c9.003,0 16.779,-3.274 23.328,-9.822c6.548,-6.548 9.617,-14.324 9.208,-23.328ZM280.6,155.981l-203.2,0c-20.872,0 -38.88,-7.367 -54.022,-22.1c-15.143,-14.734 -22.714,-32.946 -22.714,-54.637c0,-21.691 7.571,-39.698 22.714,-54.023c15.142,-14.324 33.15,-21.895 54.022,-22.714c24.556,0 43.792,8.799 57.707,26.398l44.2,56.478l43.586,-56.478c13.915,-17.599 33.151,-26.398 57.707,-26.398c21.281,0 39.289,7.572 54.022,22.714c14.734,15.143 22.305,33.151 22.714,54.023c0.41,20.872 -7.162,39.085 -22.714,54.637c-15.552,15.552 -33.559,22.918 -54.022,22.1Z" style="fill:#100c00;fill-opacity:0.470588;fill-rule:nonzero;"/></g></svg>