<?xml version="1.0" encoding="UTF-8" standalone="no"?><!DOCTYPE svg PUBLIC "-//W3C//DTD SVG 1.1//EN" "http://www.w3.org/Graphics/SVG/1.1/DTD/svg11.dtd"><svg width="100%" height="100%" viewBox="0 0 536 108" version="1.1" xmlns="http://www.w3.org/2000/svg" xmlns:xlink="http://www.w3.org/1999/xlink" xml:space="preserve" style="fill-rule:evenodd;clip-rule:evenodd;stroke-linejoin:round;stroke-miterlimit:1.41421;"><path d="M20.201,38.938c10.787,0 19.533,-8.608 19.533,-19.225c0,-10.621 -8.746,-19.226 -19.533,-19.226c-10.788,0 -19.534,8.604 -19.534,19.226c0,10.617 8.746,19.225 19.534,19.225" style="fill:#d9a41c;fill-rule:nonzero;"/><path d="M227.04,73.508l0,-53.225c0,-11.672 -7.47,-19.451 -19.142,-19.451c-8.092,0 -14.628,3.112 -21.013,10.273l-1.398,-5.916c-0.468,-2.023 -1.558,-3.112 -3.89,-3.112l-6.068,0c-2.023,0 -3.737,1.558 -3.737,3.581l0,67.85c0,2.023 1.714,3.578 3.737,3.578l8.56,0c2.02,0 3.734,-1.555 3.734,-3.578l0,-41.706c0,-9.961 6.537,-17.432 15.093,-17.432c5.916,0 8.095,3.116 8.095,9.181l0,49.957c0,2.023 1.71,3.578 3.736,3.578l8.557,0c2.022,-0.001 3.736,-1.555 3.736,-3.578M152.34,73.508l0,-67.85c0,-2.023 -1.555,-3.581 -3.578,-3.581l-8.56,0c-2.023,0 -3.735,1.558 -3.735,3.581l0,67.85c0,2.023 1.712,3.578 3.735,3.578l8.56,0c2.024,-0.001 3.578,-1.555 3.578,-3.578M104.099,39.425c0,17.744 -4.513,25.058 -13.384,25.058c-8.871,0 -13.851,-7.783 -13.851,-24.902c0,-16.96 5.291,-24.898 13.696,-24.898c10.269,0 13.539,11.828 13.539,24.742M121.061,40.05c0,-24.899 -9.182,-39.218 -26.455,-39.218c-8.871,0 -14.474,4.358 -17.895,10.892l-1.403,-6.065c-0.467,-2.335 -2.176,-3.581 -4.511,-3.581l-5.602,0c-2.026,0 -3.735,1.558 -3.735,3.581l0,98.505c0,2.022 1.709,3.581 3.735,3.581l8.557,0c2.026,0 3.582,-1.559 3.582,-3.581l0,-34.548c3.888,5.606 8.557,8.404 17.895,8.404c14.003,-0.001 25.832,-10.583 25.832,-37.97" style="fill:#1a1a18;fill-rule:nonzero;"/><path d="M405.31,76.646l0,-14.727c0,-0.255 -0.232,-0.446 -0.487,-0.446l-0.815,0c-0.258,0 -0.487,0.191 -0.487,0.446l0,10.369c0,1.14 0.14,2.402 0.28,3.424c-0.28,-0.793 -0.542,-1.838 -1.007,-2.889l-4.849,-11.022c-0.093,-0.21 -0.28,-0.328 -0.535,-0.328l-1.771,0c-0.28,0 -0.487,0.144 -0.487,0.446l0,14.727c0,0.232 0.232,0.439 0.487,0.439l0.815,0c0.256,0 0.488,-0.207 0.488,-0.439l0,-10.557c0,-0.886 -0.163,-2.447 -0.277,-3.447c0.277,1 0.58,2.07 1.025,3.052l4.941,11.022c0.117,0.232 0.328,0.37 0.561,0.37l1.631,0c0.254,-0.001 0.487,-0.208 0.487,-0.44M391.42,76.624l0,-0.838c0,-0.28 -0.232,-0.491 -0.513,-0.491l-5.664,0l0,-5.619l5.222,0c0.28,0 0.487,-0.21 0.487,-0.51l0,-0.723c0,-0.255 -0.207,-0.465 -0.487,-0.465l-5.222,0l0,-4.759l5.687,0c0.303,0 0.49,-0.229 0.49,-0.51l0,-0.768c0,-0.28 -0.232,-0.468 -0.49,-0.468l-7.082,0c-0.258,0 -0.487,0.188 -0.487,0.468l0,14.683c0,0.255 0.229,0.462 0.487,0.462l7.082,0c0.258,-0.001 0.49,-0.208 0.49,-0.462M380.442,76.624l-5.384,-8.229l4.798,-6.476c0.096,-0.118 0.214,-0.446 -0.207,-0.446l-1.443,0c-0.235,0 -0.376,0.073 -0.49,0.236l-4.638,6.62l0,-6.387c0,-0.277 -0.233,-0.468 -0.488,-0.468l-0.882,0c-0.262,0 -0.491,0.191 -0.491,0.468l0,14.683c0,0.255 0.229,0.462 0.491,0.462l0.882,0c0.255,0 0.488,-0.207 0.488,-0.462l0,-8.11l5.059,8.273c0.14,0.232 0.324,0.299 0.579,0.299l1.517,0c0.305,-0.002 0.372,-0.209 0.209,-0.463M365.062,65.55c0,1.727 -1.141,2.733 -2.981,2.733l-2.265,0l0,-5.11l2.52,0c1.797,0.001 2.726,1.001 2.726,2.377M367.952,76.528c-0.934,-2.609 -1.631,-4.38 -1.838,-4.823c-0.517,-1.096 -1.446,-2.307 -2.849,-2.539c2.1,-0.14 3.73,-1.586 3.73,-3.896c0,-1.465 -0.815,-3.797 -4.638,-3.797l-3.938,0c-0.255,0 -0.491,0.188 -0.491,0.468l0,14.683c0,0.255 0.236,0.462 0.491,0.462l0.907,0c0.255,0 0.488,-0.207 0.488,-0.462l0,-6.667l1.235,0c1.727,0 2.45,1.026 2.985,1.981c0.675,1.188 1.121,2.842 1.771,4.871c0.07,0.21 0.233,0.277 0.418,0.277l1.398,0c0.354,-0.001 0.445,-0.23 0.331,-0.558M354.199,76.624l0,-0.838c0,-0.28 -0.232,-0.491 -0.513,-0.491l-5.66,0l0,-5.619l5.218,0c0.28,0 0.49,-0.21 0.49,-0.51l0,-0.723c0,-0.255 -0.21,-0.465 -0.49,-0.465l-5.218,0l0,-4.759l5.683,0c0.306,0 0.49,-0.229 0.49,-0.51l0,-0.768c0,-0.28 -0.232,-0.468 -0.49,-0.468l-7.082,0c-0.254,0 -0.487,0.188 -0.487,0.468l0,14.683c0,0.255 0.233,0.462 0.487,0.462l7.082,0c0.258,-0.001 0.49,-0.208 0.49,-0.462M343.226,61.963c0.048,-0.255 -0.118,-0.491 -0.376,-0.491l-1.118,0c-0.255,0 -0.439,0.213 -0.491,0.468l-2.045,10.697c-0.188,0.978 -0.356,2.447 -0.445,3.285c-0.07,-0.838 -0.186,-2.307 -0.398,-3.31l-2.145,-10.672c-0.044,-0.255 -0.255,-0.468 -0.535,-0.468l-1.701,0c-0.255,0 -0.465,0.191 -0.535,0.468l-2.376,10.697c-0.188,0.838 -0.421,2.469 -0.535,3.285c-0.096,-0.793 -0.141,-2.329 -0.306,-3.31l-1.867,-10.672c-0.045,-0.255 -0.207,-0.468 -0.465,-0.468l-1.307,0c-0.255,0 -0.395,0.213 -0.347,0.468l2.845,14.727c0.07,0.328 0.21,0.417 0.49,0.417l1.816,0c0.28,0 0.51,-0.163 0.582,-0.462l2.447,-11.044c0.207,-0.911 0.303,-2.262 0.347,-3.033c0.077,0.793 0.144,2.122 0.306,3.01l2.17,11.067c0.066,0.325 0.328,0.462 0.628,0.462l1.631,0c0.255,0 0.583,-0.207 0.627,-0.462l3.103,-14.659ZM324.02,76.624l0,-0.815c0,-0.255 -0.211,-0.462 -0.466,-0.462l-5.991,0c-0.463,0 -0.928,0.089 -1.208,0.137c0.28,-0.21 0.605,-0.561 0.86,-1.025l6.291,-10.911c0.141,-0.233 0.259,-0.513 0.259,-0.768l0,-0.838c0,-0.28 -0.211,-0.468 -0.466,-0.468l-7.881,0c-0.28,0 -0.51,0.188 -0.51,0.468l0,0.768c0,0.255 0.229,0.465 0.51,0.465l5.361,0c0.538,0 1.004,-0.044 1.354,-0.14c-0.279,0.236 -0.63,0.583 -0.866,0.978l-6.358,11.003c-0.096,0.163 -0.21,0.398 -0.21,0.653l0,0.956c0,0.255 0.21,0.462 0.465,0.462l8.391,0c0.254,-0.002 0.465,-0.209 0.465,-0.463M312.366,62.709l0,-0.768c0,-0.28 -0.21,-0.468 -0.465,-0.468l-8.971,0c-0.28,0 -0.513,0.188 -0.513,0.468l0,0.768c0,0.28 0.232,0.465 0.513,0.465l3.542,0l0,13.45c0,0.255 0.229,0.462 0.487,0.462l0.908,0c0.258,0 0.49,-0.207 0.49,-0.462l0,-13.45l3.543,0c0.256,0 0.466,-0.185 0.466,-0.465M300.082,76.624l0,-0.838c0,-0.28 -0.232,-0.491 -0.509,-0.491l-5.668,0l0,-5.619l5.222,0c0.28,0 0.49,-0.21 0.49,-0.51l0,-0.723c0,-0.255 -0.21,-0.465 -0.49,-0.465l-5.222,0l0,-4.759l5.689,0c0.303,0 0.487,-0.229 0.487,-0.51l0,-0.768c0,-0.28 -0.232,-0.468 -0.487,-0.468l-7.084,0c-0.255,0 -0.487,0.188 -0.487,0.468l0,14.683c0,0.255 0.232,0.462 0.487,0.462l7.084,0c0.256,-0.001 0.488,-0.208 0.488,-0.462M287.477,76.646l0,-14.727c0,-0.255 -0.235,-0.446 -0.49,-0.446l-0.815,0c-0.252,0 -0.487,0.191 -0.487,0.446l0,10.369c0,1.14 0.141,2.402 0.28,3.424c-0.28,-0.793 -0.535,-1.838 -1,-2.889l-4.855,-11.022c-0.092,-0.21 -0.28,-0.328 -0.535,-0.328l-1.771,0c-0.274,0 -0.488,0.144 -0.488,0.446l0,14.727c0,0.232 0.236,0.439 0.488,0.439l0.815,0c0.255,0 0.49,-0.207 0.49,-0.439l0,-10.557c0,-0.886 -0.162,-2.447 -0.28,-3.447c0.28,1 0.586,2.07 1.025,3.052l4.944,11.022c0.114,0.232 0.325,0.37 0.558,0.37l1.631,0c0.254,-0.001 0.49,-0.208 0.49,-0.44M262.447,64.967c0,1.424 -0.841,2.125 -1.866,2.867c-1.211,-1.421 -1.587,-1.86 -1.587,-2.912c0,-1.513 0.911,-2.074 1.749,-2.074c1.259,0.001 1.704,0.839 1.704,2.119M263.729,74.295c-0.561,0.653 -1.491,1.258 -2.749,1.258c-1.587,0 -2.683,-1.118 -2.683,-2.634c0,-1.262 0.631,-2.38 1.586,-3.078l3.846,4.454ZM267.691,76.111l-1.867,-2.167c0.487,-1.096 0.815,-2.354 0.815,-3.752l0,-0.583c0,-0.28 -0.21,-0.491 -0.513,-0.491l-0.768,0c-0.258,0 -0.465,0.21 -0.465,0.491l0,0.653c0,0.72 -0.118,1.631 -0.28,2.284l-3.1,-3.616c1.583,-1.045 2.889,-2.258 2.889,-4.03c0,-2.077 -1.421,-3.539 -3.631,-3.539c-2.288,0 -3.708,1.65 -3.708,3.657c0,1.395 0.764,2.586 1.841,3.683c-1.542,0.86 -2.701,2.214 -2.701,4.265c0,2.284 1.373,4.237 4.587,4.237c1.959,0 3.17,-0.764 3.985,-1.694l1.535,1.79c0.163,0.185 0.469,0.207 0.679,0.022l0.631,-0.535c0.211,-0.162 0.231,-0.487 0.071,-0.675" style="fill:#1a1a18;fill-rule:nonzero;"/><path d="M535.193,46.864l0,-14.724c0,-0.258 -0.236,-0.443 -0.49,-0.443l-0.816,0c-0.251,0 -0.487,0.185 -0.487,0.443l0,10.366c0,1.144 0.141,2.402 0.28,3.424c-0.28,-0.787 -0.535,-1.838 -1,-2.886l-4.852,-11.022c-0.096,-0.207 -0.28,-0.325 -0.535,-0.325l-1.771,0c-0.277,0 -0.49,0.14 -0.49,0.443l0,14.724c0,0.236 0.235,0.446 0.49,0.446l0.815,0c0.255,0 0.491,-0.21 0.491,-0.446l0,-10.554c0,-0.886 -0.166,-2.446 -0.28,-3.45c0.28,1.003 0.583,2.077 1.022,3.055l4.947,11.022c0.114,0.232 0.324,0.373 0.554,0.373l1.632,0c0.254,0 0.49,-0.21 0.49,-0.446M519.163,39.524c0,4.409 -1.051,6.269 -3.29,6.269c-2.24,0 -3.288,-1.86 -3.288,-6.269c0,-3.052 0.303,-6.387 3.288,-6.387c2.984,0 3.29,3.335 3.29,6.387M521.187,39.524c0,-5.454 -1.839,-7.945 -5.313,-7.945c-3.476,0 -5.311,2.491 -5.311,7.945c0,5.479 1.835,7.9 5.311,7.9c3.474,0 5.313,-2.421 5.313,-7.9M506.714,46.841l0,-14.679c0,-0.28 -0.232,-0.465 -0.49,-0.465l-0.979,0c-0.255,0 -0.487,0.185 -0.487,0.465l0,14.679c0,0.258 0.232,0.468 0.487,0.468l0.979,0c0.257,0.001 0.49,-0.209 0.49,-0.468M502.076,32.93l0,-0.771c0,-0.277 -0.211,-0.462 -0.469,-0.462l-8.968,0c-0.28,0 -0.516,0.185 -0.516,0.462l0,0.771c0,0.277 0.235,0.462 0.516,0.462l3.543,0l0,13.45c0,0.258 0.232,0.468 0.487,0.468l0.908,0c0.254,0 0.486,-0.21 0.486,-0.468l0,-13.45l3.543,0c0.259,0 0.47,-0.185 0.47,-0.462M488.861,41.368l-4.357,0l1.797,-6.76c0.159,-0.605 0.28,-1.258 0.347,-1.911c0.096,0.631 0.188,1.328 0.348,1.911l1.865,6.76ZM492.592,46.797l-4.568,-14.635c-0.092,-0.325 -0.372,-0.465 -0.627,-0.465l-1.469,0c-0.258,0 -0.538,0.14 -0.631,0.465l-4.291,14.635c-0.092,0.277 0.07,0.513 0.328,0.513l1.144,0c0.255,0 0.487,-0.21 0.561,-0.468l1.045,-3.893l5.219,0l1.121,3.893c0.07,0.258 0.376,0.468 0.631,0.468l1.21,0c0.254,0 0.42,-0.236 0.327,-0.513M476.139,35.774c0,1.724 -1.141,2.727 -2.985,2.727l-2.262,0l0,-5.11l2.52,0c1.793,0.001 2.727,1.007 2.727,2.383M479.024,46.746c-0.93,-2.609 -1.631,-4.38 -1.841,-4.823c-0.51,-1.093 -1.44,-2.307 -2.842,-2.539c2.1,-0.14 3.728,-1.58 3.728,-3.89c0,-1.469 -0.812,-3.797 -4.636,-3.797l-3.938,0c-0.258,0 -0.487,0.185 -0.487,0.462l0,14.683c0,0.258 0.229,0.468 0.487,0.468l0.908,0c0.255,0 0.487,-0.21 0.487,-0.468l0,-6.665l1.239,0c1.724,0 2.446,1.026 2.981,1.981c0.676,1.186 1.122,2.845 1.771,4.868c0.07,0.21 0.232,0.284 0.421,0.284l1.395,0c0.35,0 0.446,-0.236 0.327,-0.564M464.46,46.074l0,-7.248c0,-0.28 -0.232,-0.465 -0.49,-0.465l-3.842,0c-0.28,0 -0.466,0.232 -0.466,0.487l0,0.838c0,0.255 0.186,0.49 0.466,0.49l2.491,0l0,5.247c-0.603,0.185 -1.259,0.28 -1.912,0.28c-2.749,0 -4.405,-1.727 -4.405,-6.132c0,-4.218 1.31,-6.203 4.221,-6.203c1.096,0 2.007,0.303 2.797,0.723c0.232,0.118 0.466,-0.044 0.535,-0.207l0.396,-0.866c0.092,-0.229 0.044,-0.484 -0.236,-0.625c-0.949,-0.491 -2.211,-0.815 -3.396,-0.815c-4.103,0 -6.339,2.886 -6.339,7.853c0,5.361 2.141,7.993 6.033,7.993c1.262,0 2.656,-0.21 3.517,-0.535c0.42,-0.162 0.63,-0.347 0.63,-0.815M451.246,46.841l0,-0.838c0,-0.277 -0.232,-0.487 -0.513,-0.487l-5.664,0l0,-5.62l5.221,0c0.28,0 0.487,-0.21 0.487,-0.513l0,-0.72c0,-0.258 -0.207,-0.465 -0.487,-0.465l-5.221,0l0,-4.756l5.687,0c0.306,0 0.49,-0.235 0.49,-0.513l0,-0.771c0,-0.277 -0.232,-0.462 -0.49,-0.462l-7.082,0c-0.258,0 -0.487,0.185 -0.487,0.462l0,14.683c0,0.258 0.229,0.468 0.487,0.468l7.082,0c0.258,0.001 0.49,-0.209 0.49,-0.468M440.504,32.93l0,-0.771c0,-0.277 -0.213,-0.462 -0.468,-0.462l-8.971,0c-0.28,0 -0.513,0.185 -0.513,0.462l0,0.771c0,0.277 0.232,0.462 0.513,0.462l3.542,0l0,13.45c0,0.258 0.232,0.468 0.491,0.468l0.907,0c0.255,0 0.487,-0.21 0.487,-0.468l0,-13.45l3.543,0c0.256,0 0.469,-0.185 0.469,-0.462M427.638,46.864l0,-14.724c0,-0.258 -0.236,-0.443 -0.487,-0.443l-0.815,0c-0.255,0 -0.491,0.185 -0.491,0.443l0,10.366c0,1.144 0.141,2.402 0.28,3.424c-0.28,-0.787 -0.535,-1.838 -1,-2.886l-4.852,-11.022c-0.093,-0.207 -0.283,-0.325 -0.535,-0.325l-1.771,0c-0.277,0 -0.487,0.14 -0.487,0.443l0,14.724c0,0.236 0.232,0.446 0.487,0.446l0.815,0c0.252,0 0.487,-0.21 0.487,-0.446l0,-10.554c0,-0.886 -0.162,-2.446 -0.28,-3.45c0.28,1.003 0.586,2.077 1.029,3.055l4.94,11.022c0.118,0.232 0.325,0.373 0.562,0.373l1.631,0c0.25,0 0.487,-0.21 0.487,-0.446M412.93,46.841l0,-14.679c0,-0.28 -0.232,-0.465 -0.487,-0.465l-0.979,0c-0.255,0 -0.49,0.185 -0.49,0.465l0,14.679c0,0.258 0.235,0.468 0.49,0.468l0.979,0c0.254,0.001 0.487,-0.209 0.487,-0.468M401,46.147c0,-1.029 -0.653,-1.634 -1.469,-1.634c-0.771,0 -1.446,0.605 -1.446,1.472c0,0.58 0.351,1.048 0.723,1.233c0.188,0.095 0.303,0.21 0.118,0.631c-0.118,0.254 -0.28,0.487 -0.631,0.908c-0.185,0.21 -0.162,0.417 0.07,0.608l0.328,0.277c0.207,0.162 0.439,0.092 0.652,-0.115c0.791,-0.794 1.655,-2.215 1.655,-3.38M394.122,46.864l0,-14.724c0,-0.258 -0.229,-0.443 -0.487,-0.443l-0.812,0c-0.258,0 -0.491,0.185 -0.491,0.443l0,10.366c0,1.144 0.141,2.402 0.277,3.424c-0.277,-0.787 -0.532,-1.838 -1,-2.886l-4.852,-11.022c-0.09,-0.207 -0.277,-0.325 -0.535,-0.325l-1.769,0c-0.28,0 -0.487,0.14 -0.487,0.443l0,14.724c0,0.236 0.229,0.446 0.487,0.446l0.812,0c0.258,0 0.49,-0.21 0.49,-0.446l0,-10.554c0,-0.886 -0.165,-2.446 -0.28,-3.45c0.28,1.003 0.583,2.077 1.026,3.055l4.943,11.022c0.115,0.232 0.325,0.373 0.562,0.373l1.628,0c0.259,0 0.488,-0.21 0.488,-0.446M378.092,39.524c0,4.409 -1.051,6.269 -3.287,6.269c-2.24,0 -3.288,-1.86 -3.288,-6.269c0,-3.052 0.306,-6.387 3.288,-6.387c2.984,0 3.287,3.335 3.287,6.387M380.118,39.524c0,-5.454 -1.842,-7.945 -5.313,-7.945c-3.473,0 -5.314,2.491 -5.314,7.945c0,5.479 1.842,7.9 5.314,7.9c3.471,0 5.313,-2.421 5.313,-7.9M365.643,46.841l0,-14.679c0,-0.28 -0.232,-0.465 -0.487,-0.465l-0.979,0c-0.258,0 -0.49,0.185 -0.49,0.465l0,14.679c0,0.258 0.232,0.468 0.49,0.468l0.979,0c0.254,0.001 0.487,-0.209 0.487,-0.468M361.004,32.93l0,-0.771c0,-0.277 -0.21,-0.462 -0.465,-0.462l-8.971,0c-0.28,0 -0.51,0.185 -0.51,0.462l0,0.771c0,0.277 0.229,0.462 0.51,0.462l3.542,0l0,13.45c0,0.258 0.233,0.468 0.491,0.468l0.904,0c0.255,0 0.49,-0.21 0.49,-0.468l0,-13.45l3.543,0c0.256,0 0.466,-0.185 0.466,-0.462M347.79,41.368l-4.357,0l1.796,-6.76c0.163,-0.605 0.281,-1.258 0.348,-1.911c0.096,0.631 0.188,1.328 0.354,1.911l1.859,6.76ZM351.521,46.797l-4.565,-14.635c-0.095,-0.325 -0.375,-0.465 -0.63,-0.465l-1.469,0c-0.258,0 -0.535,0.14 -0.628,0.465l-4.294,14.635c-0.089,0.277 0.073,0.513 0.328,0.513l1.144,0c0.255,0 0.49,-0.21 0.561,-0.468l1.045,-3.893l5.225,0l1.118,3.893c0.066,0.258 0.372,0.468 0.628,0.468l1.21,0c0.259,0 0.419,-0.236 0.327,-0.513M336.819,36.214c0,1.679 -1.007,2.985 -2.826,2.985l-1.911,0l0,-5.83l1.911,0c1.915,0 2.826,1.074 2.826,2.845M338.771,36.144c0,-2.657 -1.697,-4.447 -4.915,-4.447l-3.173,0c-0.252,0 -0.487,0.185 -0.487,0.462l0,14.683c0,0.258 0.235,0.468 0.487,0.468l0.911,0c0.255,0 0.487,-0.21 0.487,-0.468l0,-6.034l1.845,0c3.123,0 4.845,-1.959 4.845,-4.664M325.65,46.841l0,-14.679c0,-0.28 -0.232,-0.465 -0.487,-0.465l-0.979,0c-0.258,0 -0.49,0.185 -0.49,0.465l0,14.679c0,0.258 0.232,0.468 0.49,0.468l0.979,0c0.255,0.001 0.487,-0.209 0.487,-0.468M320.429,46.841l0,-0.812c0,-0.258 -0.207,-0.465 -0.462,-0.465l-5.995,0c-0.465,0 -0.927,0.089 -1.207,0.14c0.28,-0.213 0.605,-0.561 0.86,-1.029l6.291,-10.908c0.141,-0.236 0.262,-0.513 0.262,-0.771l0,-0.838c0,-0.277 -0.211,-0.462 -0.469,-0.462l-7.878,0c-0.28,0 -0.513,0.185 -0.513,0.462l0,0.771c0,0.255 0.232,0.462 0.513,0.462l5.358,0c0.541,0 1.007,-0.044 1.356,-0.137c-0.283,0.232 -0.63,0.58 -0.866,0.978l-6.361,11.003c-0.093,0.166 -0.207,0.395 -0.207,0.653l0,0.953c0,0.258 0.207,0.468 0.462,0.468l8.394,0c0.255,0.001 0.462,-0.209 0.462,-0.468M307.378,46.841l0,-14.679c0,-0.28 -0.229,-0.465 -0.491,-0.465l-0.975,0c-0.255,0 -0.487,0.185 -0.487,0.465l0,14.679c0,0.258 0.232,0.468 0.487,0.468l0.975,0c0.261,0.001 0.491,-0.209 0.491,-0.468M302.739,32.93l0,-0.771c0,-0.277 -0.21,-0.462 -0.465,-0.462l-8.971,0c-0.28,0 -0.513,0.185 -0.513,0.462l0,0.771c0,0.277 0.232,0.462 0.513,0.462l3.542,0l0,13.45c0,0.258 0.236,0.468 0.491,0.468l0.907,0c0.255,0 0.487,-0.21 0.487,-0.468l0,-13.45l3.543,0c0.256,0 0.466,-0.185 0.466,-0.462M288.735,35.774c0,1.724 -1.141,2.727 -2.985,2.727l-2.258,0l0,-5.11l2.517,0c1.793,0.001 2.726,1.007 2.726,2.383M291.621,46.746c-0.93,-2.609 -1.624,-4.38 -1.841,-4.823c-0.51,-1.093 -1.44,-2.307 -2.839,-2.539c2.097,-0.14 3.725,-1.58 3.725,-3.89c0,-1.469 -0.812,-3.797 -4.635,-3.797l-3.938,0c-0.259,0 -0.488,0.185 -0.488,0.462l0,14.683c0,0.258 0.229,0.468 0.488,0.468l0.907,0c0.255,0 0.491,-0.21 0.491,-0.468l0,-6.665l1.235,0c1.724,0 2.447,1.026 2.982,1.981c0.675,1.186 1.121,2.845 1.771,4.868c0.07,0.21 0.232,0.284 0.421,0.284l1.396,0c0.35,0 0.443,-0.236 0.325,-0.564M274.61,41.368l-4.358,0l1.794,-6.76c0.162,-0.605 0.283,-1.258 0.354,-1.911c0.089,0.631 0.185,1.328 0.351,1.911l1.859,6.76ZM278.344,46.797l-4.571,-14.635c-0.093,-0.325 -0.372,-0.465 -0.628,-0.465l-1.472,0c-0.255,0 -0.535,0.14 -0.627,0.465l-4.285,14.635c-0.095,0.277 0.067,0.513 0.325,0.513l1.141,0c0.255,0 0.49,-0.21 0.558,-0.468l1.051,-3.893l5.222,0l1.115,3.893c0.069,0.258 0.375,0.468 0.63,0.468l1.211,0c0.257,0 0.42,-0.236 0.33,-0.513M263.639,36.214c0,1.679 -1.006,2.985 -2.822,2.985l-1.918,0l0,-5.83l1.918,0c1.912,0 2.822,1.074 2.822,2.845M265.589,36.144c0,-2.657 -1.698,-4.447 -4.912,-4.447l-3.173,0c-0.255,0 -0.484,0.185 -0.484,0.462l0,14.683c0,0.258 0.229,0.468 0.484,0.468l0.911,0c0.255,0 0.483,-0.21 0.483,-0.468l0,-6.034l1.845,0c3.125,0 4.846,-1.959 4.846,-4.664" style="fill:#1a1a18;fill-rule:nonzero;"/><path d="M365.878,5.992c0,1.727 -1.141,2.727 -2.984,2.727l-2.259,0l0,-5.107l2.517,0c1.796,0 2.726,1.004 2.726,2.38M368.768,16.97c-0.934,-2.612 -1.631,-4.383 -1.838,-4.826c-0.514,-1.096 -1.446,-2.306 -2.849,-2.542c2.1,-0.137 3.73,-1.58 3.73,-3.89c0,-1.469 -0.815,-3.797 -4.638,-3.797l-3.938,0c-0.255,0 -0.487,0.185 -0.487,0.465l0,14.679c0,0.258 0.232,0.468 0.487,0.468l0.908,0c0.254,0 0.49,-0.21 0.49,-0.468l0,-6.665l1.236,0c1.723,0 2.446,1.026 2.981,1.981c0.675,1.191 1.121,2.845 1.771,4.871c0.07,0.21 0.233,0.28 0.421,0.28l1.396,0c0.352,0.001 0.444,-0.231 0.33,-0.556M352.454,-0.019c0,-0.631 -0.491,-1.096 -1.141,-1.096c-0.561,0 -1.073,0.465 -1.073,1.096c0,0.647 0.513,1.137 1.096,1.137c0.653,0 1.118,-0.49 1.118,-1.137M348.469,-0.019c0,-0.631 -0.49,-1.096 -1.144,-1.096c-0.561,0 -1.07,0.465 -1.07,1.096c0,0.647 0.51,1.137 1.096,1.137c0.649,0 1.118,-0.49 1.118,-1.137M354.199,12.845l0,-10.465c0,-0.28 -0.232,-0.465 -0.49,-0.465l-0.883,0c-0.254,0 -0.49,0.185 -0.49,0.465l0,10.324c0,2.775 -1.303,3.335 -3.029,3.335c-2.236,0 -2.938,-1.376 -2.938,-3.616l0,-10.043c0,-0.28 -0.235,-0.465 -0.49,-0.465l-0.883,0c-0.258,0 -0.487,0.185 -0.487,0.465l0,10.465c0,2.937 1.37,4.8 4.798,4.8c3.243,0 4.892,-1.723 4.892,-4.8M341.24,3.147l0,-0.768c0,-0.28 -0.232,-0.465 -0.487,-0.465l-6.852,0c-0.255,0 -0.487,0.185 -0.487,0.465l0,14.679c0,0.258 0.232,0.468 0.487,0.468l0.911,0c0.251,0 0.487,-0.21 0.487,-0.468l0,-6.945l4.985,0c0.28,0 0.49,-0.207 0.49,-0.513l0,-0.72c0,-0.255 -0.21,-0.462 -0.49,-0.462l-4.984,0l0,-4.76l5.453,0c0.303,0.002 0.487,-0.23 0.487,-0.511M322.738,17.082l0,-14.724c0,-0.258 -0.232,-0.443 -0.49,-0.443l-0.812,0c-0.258,0 -0.487,0.185 -0.487,0.443l0,10.369c0,1.144 0.14,2.399 0.274,3.428c-0.274,-0.793 -0.535,-1.844 -1.001,-2.893l-4.849,-11.022c-0.096,-0.207 -0.28,-0.325 -0.535,-0.325l-1.771,0c-0.28,0 -0.491,0.14 -0.491,0.443l0,14.724c0,0.235 0.236,0.446 0.491,0.446l0.815,0c0.255,0 0.487,-0.21 0.487,-0.446l0,-10.551c0,-0.889 -0.163,-2.45 -0.277,-3.454c0.277,1.004 0.58,2.077 1.026,3.055l4.94,11.022c0.118,0.232 0.325,0.373 0.561,0.373l1.628,0c0.259,0 0.491,-0.21 0.491,-0.445M308.034,17.059l0,-14.679c0,-0.28 -0.236,-0.465 -0.491,-0.465l-0.98,0c-0.255,0 -0.484,0.185 -0.484,0.465l0,14.679c0,0.258 0.229,0.468 0.484,0.468l0.98,0c0.255,0 0.491,-0.21 0.491,-0.468M302.344,17.062l0,-0.837c0,-0.28 -0.235,-0.488 -0.509,-0.488l-5.668,0l0,-5.623l5.222,0c0.28,0 0.49,-0.207 0.49,-0.513l0,-0.72c0,-0.255 -0.21,-0.462 -0.49,-0.462l-5.222,0l0,-4.76l5.69,0c0.302,0 0.486,-0.232 0.486,-0.513l0,-0.768c0,-0.28 -0.235,-0.465 -0.486,-0.465l-7.089,0c-0.251,0 -0.483,0.185 -0.483,0.465l0,14.682c0,0.255 0.232,0.465 0.483,0.465l7.089,0c0.251,0.002 0.487,-0.208 0.487,-0.463M288.13,5.992c0,1.727 -1.141,2.727 -2.984,2.727l-2.259,0l0,-5.107l2.517,0c1.793,0 2.726,1.004 2.726,2.38M291.017,16.97c-0.931,-2.612 -1.628,-4.383 -1.842,-4.826c-0.51,-1.096 -1.439,-2.306 -2.842,-2.542c2.1,-0.137 3.728,-1.58 3.728,-3.89c0,-1.469 -0.812,-3.797 -4.635,-3.797l-3.938,0c-0.258,0 -0.487,0.185 -0.487,0.465l0,14.679c0,0.258 0.229,0.468 0.487,0.468l0.908,0c0.254,0 0.49,-0.21 0.49,-0.468l0,-6.665l1.236,0c1.723,0 2.446,1.026 2.981,1.981c0.675,1.191 1.121,2.845 1.771,4.871c0.07,0.21 0.233,0.28 0.421,0.28l1.396,0c0.351,0.001 0.443,-0.231 0.326,-0.556M277.268,17.062l0,-0.837c0,-0.28 -0.232,-0.488 -0.514,-0.488l-5.66,0l0,-5.623l5.218,0c0.28,0 0.49,-0.207 0.49,-0.513l0,-0.72c0,-0.255 -0.21,-0.462 -0.49,-0.462l-5.218,0l0,-4.76l5.683,0c0.306,0 0.491,-0.232 0.491,-0.513l0,-0.768c0,-0.28 -0.232,-0.465 -0.491,-0.465l-7.081,0c-0.259,0 -0.487,0.185 -0.487,0.465l0,14.682c0,0.255 0.229,0.465 0.487,0.465l7.081,0c0.258,0.002 0.491,-0.208 0.491,-0.463M266.525,2.38c0.07,-0.258 -0.118,-0.465 -0.373,-0.465l-1.003,0c-0.255,0 -0.491,0.185 -0.561,0.465l-3.026,11.277c-0.166,0.586 -0.376,1.771 -0.517,2.564c-0.114,-0.815 -0.325,-1.978 -0.487,-2.564l-3.029,-11.277c-0.093,-0.325 -0.306,-0.465 -0.608,-0.465l-1.188,0c-0.255,0 -0.442,0.207 -0.348,0.487l4.358,14.657c0.067,0.258 0.373,0.468 0.628,0.468l1.306,0c0.255,0 0.561,-0.21 0.631,-0.468l4.217,-14.679Z" style="fill:#d9a41c;fill-rule:nonzero;"/></svg>